<svg width="300" height="300" xmlns="http://www.w3.org/2000/svg"><rect width="300" height="300" fill="white"/><rect x="0" y="0" width="14.285714285714" height="14.285714285714" fill="black"/><rect x="14.285714285714" y="0" width="14.285714285714" height="14.285714285714" fill="black"/><rect x="28.571428571429" y="0" width="14.285714285714" height="14.285714285714" fill="black"/><rect x="42.857142857143" y="0" width="14.285714285714" height="14.285714285714" fill="black"/><rect x="57.142857142857" y="0" width="14.285714285714" height="14.285714285714" fill="black"/><rect x="71.428571428571" y="0" width="14.285714285714" height="14.285714285714" fill="black"/><rect x="85.714285714286" y="0" width="14.285714285714" height="14.285714285714" fill="black"/><rect x="200" y="0" width="14.285714285714" height="14.285714285714" fill="black"/><rect x="214.28571428571" y="0" width="14.285714285714" height="14.285714285714" fill="black"/><rect x="228.57142857143" y="0" width="14.285714285714" height="14.285714285714" fill="black"/><rect x="242.85714285714" y="0" width="14.285714285714" height="14.285714285714" fill="black"/><rect x="257.14285714286" y="0" width="14.285714285714" height="14.285714285714" fill="black"/><rect x="271.42857142857" y="0" width="14.285714285714" height="14.285714285714" fill="black"/><rect x="285.71428571429" y="0" width="14.285714285714" height="14.285714285714" fill="black"/><rect x="0" y="14.285714285714" width="14.285714285714" height="14.285714285714" fill="black"/><rect x="85.714285714286" y="14.285714285714" width="14.285714285714" height="14.285714285714" fill="black"/><rect x="200" y="14.285714285714" width="14.285714285714" height="14.285714285714" fill="black"/><rect x="285.71428571429" y="14.285714285714" width="14.285714285714" height="14.285714285714" fill="black"/><rect x="0" y="28.571428571429" width="14.285714285714" height="14.285714285714" fill="black"/><rect x="28.571428571429" y="28.571428571429" width="14.285714285714" height="14.285714285714" fill="black"/><rect x="42.857142857143" y="28.571428571429" width="14.285714285714" height="14.285714285714" fill="black"/><rect x="57.142857142857" y="28.571428571429" width="14.285714285714" height="14.285714285714" fill="black"/><rect x="85.714285714286" y="28.571428571429" width="14.285714285714" height="14.285714285714" fill="black"/><rect x="200" y="28.571428571429" width="14.285714285714" height="14.285714285714" fill="black"/><rect x="228.57142857143" y="28.571428571429" width="14.285714285714" height="14.285714285714" fill="black"/><rect x="242.85714285714" y="28.571428571429" width="14.285714285714" height="14.285714285714" fill="black"/><rect x="257.14285714286" y="28.571428571429" width="14.285714285714" height="14.285714285714" fill="black"/><rect x="285.71428571429" y="28.571428571429" width="14.285714285714" height="14.285714285714" fill="black"/><rect x="0" y="42.857142857143" width="14.285714285714" height="14.285714285714" fill="black"/><rect x="28.571428571429" y="42.857142857143" width="14.285714285714" height="14.285714285714" fill="black"/><rect x="42.857142857143" y="42.857142857143" width="14.285714285714" height="14.285714285714" fill="black"/><rect x="57.142857142857" y="42.857142857143" width="14.285714285714" height="14.285714285714" fill="black"/><rect x="85.714285714286" y="42.857142857143" width="14.285714285714" height="14.285714285714" fill="black"/><rect x="200" y="42.857142857143" width="14.285714285714" height="14.285714285714" fill="black"/><rect x="228.57142857143" y="42.857142857143" width="14.285714285714" height="14.285714285714" fill="black"/><rect x="242.85714285714" y="42.857142857143" width="14.285714285714" height="14.285714285714" fill="black"/><rect x="257.14285714286" y="42.857142857143" width="14.285714285714" height="14.285714285714" fill="black"/><rect x="285.71428571429" y="42.857142857143" width="14.285714285714" height="14.285714285714" fill="black"/><rect x="0" y="57.142857142857" width="14.285714285714" height="14.285714285714" fill="black"/><rect x="28.571428571429" y="57.142857142857" width="14.285714285714" height="14.285714285714" fill="black"/><rect x="42.857142857143" y="57.142857142857" width="14.285714285714" height="14.285714285714" fill="black"/><rect x="57.142857142857" y="57.142857142857" width="14.285714285714" height="14.285714285714" fill="black"/><rect x="85.714285714286" y="57.142857142857" width="14.285714285714" height="14.285714285714" fill="black"/><rect x="200" y="57.142857142857" width="14.285714285714" height="14.285714285714" fill="black"/><rect x="228.57142857143" y="57.142857142857" width="14.285714285714" height="14.285714285714" fill="black"/><rect x="242.85714285714" y="57.142857142857" width="14.285714285714" height="14.285714285714" fill="black"/><rect x="257.14285714286" y="57.142857142857" width="14.285714285714" height="14.285714285714" fill="black"/><rect x="285.71428571429" y="57.142857142857" width="14.285714285714" height="14.285714285714" fill="black"/><rect x="0" y="71.428571428571" width="14.285714285714" height="14.285714285714" fill="black"/><rect x="85.714285714286" y="71.428571428571" width="14.285714285714" height="14.285714285714" fill="black"/><rect x="200" y="71.428571428571" width="14.285714285714" height="14.285714285714" fill="black"/><rect x="285.71428571429" y="71.428571428571" width="14.285714285714" height="14.285714285714" fill="black"/><rect x="0" y="85.714285714286" width="14.285714285714" height="14.285714285714" fill="black"/><rect x="14.285714285714" y="85.714285714286" width="14.285714285714" height="14.285714285714" fill="black"/><rect x="28.571428571429" y="85.714285714286" width="14.285714285714" height="14.285714285714" fill="black"/><rect x="42.857142857143" y="85.714285714286" width="14.285714285714" height="14.285714285714" fill="black"/><rect x="57.142857142857" y="85.714285714286" width="14.285714285714" height="14.285714285714" fill="black"/><rect x="71.428571428571" y="85.714285714286" width="14.285714285714" height="14.285714285714" fill="black"/><rect x="85.714285714286" y="85.714285714286" width="14.285714285714" height="14.285714285714" fill="black"/><rect x="114.28571428571" y="85.714285714286" width="14.285714285714" height="14.285714285714" fill="black"/><rect x="142.85714285714" y="85.714285714286" width="14.285714285714" height="14.285714285714" fill="black"/><rect x="171.42857142857" y="85.714285714286" width="14.285714285714" height="14.285714285714" fill="black"/><rect x="200" y="85.714285714286" width="14.285714285714" height="14.285714285714" fill="black"/><rect x="214.28571428571" y="85.714285714286" width="14.285714285714" height="14.285714285714" fill="black"/><rect x="228.57142857143" y="85.714285714286" width="14.285714285714" height="14.285714285714" fill="black"/><rect x="242.85714285714" y="85.714285714286" width="14.285714285714" height="14.285714285714" fill="black"/><rect x="257.14285714286" y="85.714285714286" width="14.285714285714" height="14.285714285714" fill="black"/><rect x="271.42857142857" y="85.714285714286" width="14.285714285714" height="14.285714285714" fill="black"/><rect x="285.71428571429" y="85.714285714286" width="14.285714285714" height="14.285714285714" fill="black"/><rect x="85.714285714286" y="114.28571428571" width="14.285714285714" height="14.285714285714" fill="black"/><rect x="85.714285714286" y="142.85714285714" width="14.285714285714" height="14.285714285714" fill="black"/><rect x="85.714285714286" y="171.42857142857" width="14.285714285714" height="14.285714285714" fill="black"/><rect x="0" y="200" width="14.285714285714" height="14.285714285714" fill="black"/><rect x="14.285714285714" y="200" width="14.285714285714" height="14.285714285714" fill="black"/><rect x="28.571428571429" y="200" width="14.285714285714" height="14.285714285714" fill="black"/><rect x="42.857142857143" y="200" width="14.285714285714" height="14.285714285714" fill="black"/><rect x="57.142857142857" y="200" width="14.285714285714" height="14.285714285714" fill="black"/><rect x="71.428571428571" y="200" width="14.285714285714" height="14.285714285714" fill="black"/><rect x="85.714285714286" y="200" width="14.285714285714" height="14.285714285714" fill="black"/><rect x="0" y="214.28571428571" width="14.285714285714" height="14.285714285714" fill="black"/><rect x="85.714285714286" y="214.28571428571" width="14.285714285714" height="14.285714285714" fill="black"/><rect x="0" y="228.57142857143" width="14.285714285714" height="14.285714285714" fill="black"/><rect x="28.571428571429" y="228.57142857143" width="14.285714285714" height="14.285714285714" fill="black"/><rect x="42.857142857143" y="228.57142857143" width="14.285714285714" height="14.285714285714" fill="black"/><rect x="57.142857142857" y="228.57142857143" width="14.285714285714" height="14.285714285714" fill="black"/><rect x="85.714285714286" y="228.57142857143" width="14.285714285714" height="14.285714285714" fill="black"/><rect x="0" y="242.85714285714" width="14.285714285714" height="14.285714285714" fill="black"/><rect x="28.571428571429" y="242.85714285714" width="14.285714285714" height="14.285714285714" fill="black"/><rect x="42.857142857143" y="242.85714285714" width="14.285714285714" height="14.285714285714" fill="black"/><rect x="57.142857142857" y="242.85714285714" width="14.285714285714" height="14.285714285714" fill="black"/><rect x="85.714285714286" y="242.85714285714" width="14.285714285714" height="14.285714285714" fill="black"/><rect x="0" y="257.14285714286" width="14.285714285714" height="14.285714285714" fill="black"/><rect x="28.571428571429" y="257.14285714286" width="14.285714285714" height="14.285714285714" fill="black"/><rect x="42.857142857143" y="257.14285714286" width="14.285714285714" height="14.285714285714" fill="black"/><rect x="57.142857142857" y="257.14285714286" width="14.285714285714" height="14.285714285714" fill="black"/><rect x="85.714285714286" y="257.14285714286" width="14.285714285714" height="14.285714285714" fill="black"/><rect x="0" y="271.42857142857" width="14.285714285714" height="14.285714285714" fill="black"/><rect x="85.714285714286" y="271.42857142857" width="14.285714285714" height="14.285714285714" fill="black"/><rect x="0" y="285.71428571429" width="14.285714285714" height="14.285714285714" fill="black"/><rect x="14.285714285714" y="285.71428571429" width="14.285714285714" height="14.285714285714" fill="black"/><rect x="28.571428571429" y="285.71428571429" width="14.285714285714" height="14.285714285714" fill="black"/><rect x="42.857142857143" y="285.71428571429" width="14.285714285714" height="14.285714285714" fill="black"/><rect x="57.142857142857" y="285.71428571429" width="14.285714285714" height="14.285714285714" fill="black"/><rect x="71.428571428571" y="285.71428571429" width="14.285714285714" height="14.285714285714" fill="black"/><rect x="85.714285714286" y="285.71428571429" width="14.285714285714" height="14.285714285714" fill="black"/></svg>